<svg width="36" height="36" viewBox="0 0 36 36" fill="none" xmlns="http://www.w3.org/2000/svg">
<path d="M24.2382 12.1613C23.071 11.6148 21.8394 11.2247 20.5741 11.0008C20.5626 10.9988 20.5508 11.0005 20.5404 11.0057C20.5299 11.0108 20.5212 11.0191 20.5156 11.0295C20.3569 11.3165 20.1814 11.6918 20.0588 11.9857C18.6949 11.7745 17.3075 11.7745 15.9436 11.9857C15.8068 11.6583 15.6521 11.3391 15.4801 11.0295C15.4744 11.0192 15.4657 11.011 15.4552 11.0059C15.4448 11.0008 15.4331 10.999 15.4216 11.0008C14.156 11.2235 12.9241 11.6138 11.7575 12.1613C11.7476 12.1652 11.7392 12.1725 11.7339 12.182C9.40069 15.7394 8.76057 19.2095 9.07444 22.6361C9.07556 22.6521 9.08569 22.6682 9.09806 22.6785C10.4567 23.7055 11.9764 24.4896 13.5924 24.9973C13.6038 25.001 13.6161 25.0009 13.6274 24.997C13.6387 24.993 13.6485 24.9855 13.6554 24.9755C14.0019 24.4934 14.3101 23.9849 14.5756 23.4499C14.5812 23.4389 14.5831 23.4264 14.581 23.4142C14.579 23.402 14.5732 23.3908 14.5644 23.3822C14.5586 23.3766 14.5517 23.3723 14.5441 23.3696C14.0594 23.1795 13.59 22.9512 13.1401 22.6866C13.1276 22.6793 13.1182 22.6674 13.114 22.6533C13.1099 22.6392 13.1111 22.624 13.1176 22.6108C13.1215 22.6023 13.1273 22.5948 13.1345 22.589C13.229 22.5167 13.3235 22.4409 13.4135 22.3652C13.4215 22.3586 13.431 22.3545 13.4411 22.353C13.4512 22.3516 13.4615 22.353 13.4709 22.3571C16.4172 23.73 19.6066 23.73 22.5169 22.3571C22.5266 22.3528 22.5373 22.3513 22.5478 22.3527C22.5583 22.3541 22.5683 22.3584 22.5765 22.3652C22.6665 22.4409 22.761 22.5167 22.8555 22.589C22.8632 22.5947 22.8694 22.6023 22.8734 22.611C22.8775 22.6197 22.8795 22.6294 22.879 22.639C22.8786 22.6487 22.8758 22.6581 22.8709 22.6664C22.866 22.6747 22.8592 22.6816 22.851 22.6866C22.4022 22.9536 21.9322 23.1817 21.4459 23.3684C21.4382 23.3713 21.4311 23.3759 21.4253 23.3818C21.4195 23.3878 21.415 23.395 21.4122 23.4029C21.4096 23.4106 21.4085 23.4187 21.4091 23.4268C21.4097 23.4349 21.4119 23.4427 21.4156 23.4499C21.6856 23.9837 21.9949 24.4934 22.3347 24.9755C22.3415 24.9855 22.3513 24.993 22.3627 24.997C22.374 25.0009 22.3863 25.001 22.3977 24.9973C24.0163 24.4911 25.5385 23.707 26.8988 22.6785C26.9056 22.6737 26.9112 22.6674 26.9153 22.6601C26.9194 22.6527 26.9218 22.6445 26.9224 22.6361C27.2981 18.6746 26.2935 15.2332 24.2607 12.1832C24.2586 12.1781 24.2555 12.1736 24.2517 12.1698C24.2478 12.1661 24.2432 12.1632 24.2382 12.1613V12.1613ZM15.0155 20.5492C14.1279 20.5492 13.3978 19.7181 13.3978 18.6987C13.3978 17.6782 14.1144 16.8471 15.0155 16.8471C15.9234 16.8471 16.6467 17.6851 16.6332 18.6987C16.6332 19.7181 15.9166 20.5492 15.0155 20.5492ZM20.9959 20.5492C20.1094 20.5492 19.3782 19.7181 19.3782 18.6987C19.3782 17.6782 20.0948 16.8471 20.9959 16.8471C21.9038 16.8471 22.6283 17.6851 22.6137 18.6987C22.6137 19.7181 21.9038 20.5492 20.9959 20.5492Z" fill="white"/>
</svg>
