<svg width="36" height="36" viewBox="0 0 36 36" fill="none" xmlns="http://www.w3.org/2000/svg">
<path d="M26 18.0999C26 17.0999 25.2 16.2999 24.2 16.3999C23.8 16.3999 23.3 16.5999 23 16.8999C21.6 15.9999 20 15.3999 18.3 15.3999L19.1 11.5999L21.7 12.1999C21.7 12.8999 22.3 13.3999 23 13.3999C23.7 13.3999 24.2 12.7999 24.2 12.0999C24.2 11.3999 23.6 10.8999 22.9 10.8999C22.4 10.8999 22 11.1999 21.8 11.5999L19 10.8999H18.8C18.7 10.8999 18.7 10.9999 18.7 11.0999L17.7 15.3999C16 15.3999 14.4 15.8999 13 16.8999C12.3 16.1999 11.2 16.1999 10.5 16.8999C9.79998 17.5999 9.79998 18.6999 10.5 19.3999C10.6 19.4999 10.8 19.6999 11 19.6999V20.1999C11 22.8999 14.1 25.0999 18 25.0999C21.9 25.0999 25 22.8999 25 20.1999V19.6999C25.6 19.3999 26 18.7999 26 18.0999V18.0999ZM14 19.3999C14 18.6999 14.6 18.1999 15.2 18.1999C15.9 18.1999 16.4 18.7999 16.4 19.3999C16.4 19.9999 15.8 20.5999 15.2 20.5999C14.5 20.5999 14 20.0999 14 19.3999ZM21 22.6999C20.1 23.2999 19.1 23.6999 18 23.5999C16.9 23.5999 15.9 23.2999 15 22.6999C14.9 22.5999 14.9 22.3999 15 22.1999C15.1 22.0999 15.3 22.0999 15.4 22.1999C16.1 22.6999 17 22.9999 17.9 22.8999C18.8 22.9999 19.7 22.6999 20.4 22.1999C20.5 22.0999 20.7 22.0999 20.9 22.1999C21.1 22.2999 21.1 22.4999 21 22.6999ZM20.7 20.5999C20 20.5999 19.5 19.9999 19.5 19.3999C19.5 18.7999 20.1 18.1999 20.7 18.1999C21.4 18.1999 21.9 18.7999 21.9 19.3999C22 20.0999 21.4 20.5999 20.7 20.5999Z" fill="white"/>
</svg>
