<svg width="36" height="36" viewBox="0 0 36 36" fill="none" xmlns="http://www.w3.org/2000/svg">
<path d="M26.125 12.9668C25.5273 13.2246 24.877 13.4102 24.207 13.4824C24.9026 13.0692 25.4234 12.4164 25.6719 11.6465C25.0192 12.0348 24.3042 12.307 23.5586 12.4512C23.247 12.118 22.8701 11.8526 22.4514 11.6715C22.0327 11.4904 21.5812 11.3974 21.125 11.3984C19.2793 11.3984 17.7949 12.8945 17.7949 14.7305C17.7949 14.9883 17.8262 15.2461 17.877 15.4941C15.1133 15.3496 12.6484 14.0293 11.0098 12.0078C10.7112 12.5178 10.5547 13.0985 10.5566 13.6895C10.5566 14.8457 11.1445 15.8652 12.041 16.4649C11.5127 16.444 10.9968 16.2988 10.5352 16.041V16.082C10.5352 17.7012 11.6797 19.043 13.2051 19.3516C12.9187 19.426 12.624 19.464 12.3281 19.4649C12.1113 19.4649 11.9062 19.4434 11.6992 19.4141C12.1211 20.7344 13.3496 21.6934 14.8125 21.7246C13.668 22.6211 12.2344 23.1484 10.6777 23.1484C10.3984 23.1484 10.1406 23.1387 9.87305 23.1074C11.3496 24.0547 13.1016 24.6016 14.9883 24.6016C21.1133 24.6016 24.4648 19.5274 24.4648 15.1231C24.4648 14.9785 24.4648 14.834 24.4551 14.6895C25.1035 14.2149 25.6719 13.627 26.125 12.9668Z" fill="white"/>
</svg>
