<svg width="36" height="36" viewBox="0 0 36 36" fill="none" xmlns="http://www.w3.org/2000/svg">
<g clip-path="url(#clip0_220_1819)">
<path d="M19.3507 17.524C19.3507 20.6798 16.8097 23.2381 13.6754 23.2381C10.5412 23.2381 8 20.6792 8 17.524C8 14.3687 10.541 11.8096 13.6754 11.8096C16.8099 11.8096 19.3507 14.3681 19.3507 17.524ZM25.5766 17.524C25.5766 20.4945 24.3061 22.9036 22.7389 22.9036C21.1717 22.9036 19.9012 20.4945 19.9012 17.524C19.9012 14.5534 21.1715 12.1443 22.7387 12.1443C24.3059 12.1443 25.5764 14.5526 25.5764 17.524M28.1232 17.524C28.1232 20.1849 27.6764 22.3433 27.1251 22.3433C26.5739 22.3433 26.1273 20.1854 26.1273 17.524C26.1273 14.8625 26.5741 12.7046 27.1251 12.7046C27.6762 12.7046 28.1232 14.8623 28.1232 17.524" fill="white"/>
</g>
<defs>
<clipPath id="clip0_220_1819">
<rect width="20" height="20" fill="white" transform="translate(8 8)"/>
</clipPath>
</defs>
</svg>
